<svg width="512" height="512" viewBox="0 0 512 512" fill="none" xmlns="http://www.w3.org/2000/svg">
<path d="M0 256C0 114.615 114.615 0 256 0V0C397.385 0 512 114.615 512 256V256C512 397.385 397.385 512 256 512V512C114.615 512 0 397.385 0 256V256Z" fill="black"/>
<path d="M256 256C298.629 256 333.5 221.124 333.5 178.5C333.5 135.876 298.629 101 256 101C213.371 101 178.5 135.876 178.5 178.5C178.5 221.124 213.371 256 256 256ZM256 294.75C204.658 294.75 101 320.908 101 372.25V411H411V372.25C411 320.908 307.342 294.75 256 294.75Z" fill="white"/>
</svg>
