<svg width="80" height="80" viewBox="0 0 80 80" fill="none" xmlns="http://www.w3.org/2000/svg">
<path d="M39.9521 0.00859424C39.8706 0.0234587 39.789 0.0457524 39.7149 0.0680481C38.8329 0.268705 38.2104 1.0639 38.2326 1.97057V13.3857C38.2252 14.0694 38.581 14.7086 39.1739 15.0578C39.7668 15.3997 40.4931 15.3997 41.086 15.0578C41.679 14.7086 42.0347 14.0694 42.0273 13.3857V1.97057C42.0495 1.42062 41.8272 0.89297 41.4344 0.521383C41.0342 0.142366 40.4931 -0.0434283 39.9521 0.00859424ZM12.915 11.1859C12.2035 11.3123 11.6328 11.8325 11.4327 12.5236C11.2326 13.2222 11.4401 13.9654 11.9663 14.4559L20.03 22.5416C20.4895 23.1064 21.2233 23.3665 21.9348 23.203C22.6389 23.0395 23.1947 22.4821 23.3578 21.7761C23.5208 21.0627 23.2614 20.3269 22.6982 19.8662L14.6345 11.7805C14.2417 11.3568 13.671 11.1413 13.0929 11.1859C13.0336 11.1859 12.9743 11.1859 12.915 11.1859ZM66.752 11.1859C66.3221 11.2454 65.9219 11.4609 65.6254 11.7805L57.5618 19.8662C56.9985 20.3269 56.7391 21.0627 56.9021 21.7761C57.0652 22.4821 57.621 23.0395 58.3251 23.203C59.0366 23.3665 59.7704 23.1064 60.2299 22.5416L68.2936 14.4559C68.8865 13.8911 69.057 13.0067 68.7086 12.2635C68.3529 11.5129 67.5672 11.0819 66.752 11.1859ZM40.13 20.9958C29.665 20.9958 21.1566 29.5274 21.1566 40.021C21.1566 50.5146 29.665 59.0462 40.13 59.0462C50.595 59.0462 59.1033 50.5146 59.1033 40.021C59.1033 29.5274 50.595 20.9958 40.13 20.9958ZM1.64956 38.1185C0.604545 38.2671 -0.129192 39.2407 0.0190377 40.2886C0.167267 41.3364 1.13817 42.0722 2.18319 41.9235H13.5672C14.2491 41.931 14.8865 41.5742 15.2348 40.9797C15.5757 40.3852 15.5757 39.6569 15.2348 39.0623C14.8865 38.4678 14.2491 38.1111 13.5672 38.1185H2.18319C2.1239 38.1185 2.06461 38.1185 2.00531 38.1185C1.94602 38.1185 1.88673 38.1185 1.82744 38.1185C1.76815 38.1185 1.70885 38.1185 1.64956 38.1185ZM66.1591 38.1185C65.114 38.2671 64.3803 39.2407 64.5285 40.2886C64.6768 41.3364 65.6477 42.0722 66.6927 41.9235H78.0767C78.7586 41.931 79.396 41.5742 79.7443 40.9797C80.0852 40.3852 80.0852 39.6569 79.7443 39.0623C79.396 38.4678 78.7586 38.1111 78.0767 38.1185H66.6927C66.6334 38.1185 66.5741 38.1185 66.5148 38.1185C66.4555 38.1185 66.3962 38.1185 66.3369 38.1185C66.2776 38.1185 66.2184 38.1185 66.1591 38.1185ZM21.1566 56.9059C20.7267 56.9654 20.3265 57.1809 20.03 57.5004L11.9663 65.5862C11.4031 66.0469 11.1437 66.7827 11.3067 67.4961C11.4698 68.2021 12.0256 68.7595 12.7297 68.923C13.4412 69.0865 14.175 68.8264 14.6345 68.2616L22.6982 60.1759C23.2614 59.6333 23.4319 58.7936 23.128 58.0727C22.8316 57.3518 22.1127 56.891 21.3344 56.9059C21.2752 56.9059 21.2159 56.9059 21.1566 56.9059ZM58.5104 56.9059C57.7989 57.0322 57.2282 57.5525 57.0281 58.2436C56.828 58.9422 57.0355 59.6854 57.5618 60.1759L65.6254 68.2616C66.085 68.8264 66.8187 69.0865 67.5302 68.923C68.2343 68.7595 68.7901 68.2021 68.9532 67.4961C69.1162 66.7827 68.8568 66.0469 68.2936 65.5862L60.2299 57.5004C59.8741 57.1214 59.385 56.9133 58.8662 56.9059C58.8069 56.9059 58.7476 56.9059 58.6883 56.9059C58.629 56.9059 58.5697 56.9059 58.5104 56.9059ZM39.9521 64.6944C39.8706 64.7092 39.789 64.7315 39.7149 64.7538C38.8329 64.9545 38.2104 65.7497 38.2326 66.6563V78.0715C38.2252 78.7552 38.581 79.3943 39.1739 79.7436C39.7668 80.0855 40.4931 80.0855 41.086 79.7436C41.679 79.3943 42.0347 78.7552 42.0273 78.0715V66.6563C42.0495 66.1064 41.8272 65.5787 41.4344 65.2071C41.0342 64.8281 40.4931 64.6423 39.9521 64.6944Z" fill="white"/>
</svg>
